# xmcd
#
# Track frame offsets:
#	150
#	13222
#	25965
#	39200
#	51125
#	63665
#	77285
#	89970
#	103795
#	115207
#	129422
#	145342
#	159005
#	175150
#	189970
#	221360
#	237092
#	255610
#	273670
#	289240
#
# Disc length: 4074
#
# Revision: 1
# Processed by: cddbd v1.5.1PL0 Copyright (c) Steve Scherf et al.
# Submitted via: audiograbber 1.81.02
# Normalized: r0:DSETVAR1
#
DISCID=170fe814
DTITLE=Various Artist - Greates Soul Moments [CD 1)
DYEAR=1900
DGENRE=
TTITLE0=Supremes - You Can't Hurry Love
TTITLE1=Martha and The Vandellas - Love Is Like Heat Wave
TTITLE2=Gladys Knight and The Pips - I Heard It Throught The Grapevine
TTITLE3=Barrett Strong - Money
TTITLE4=Four Tops - I Can't Help Myself
TTITLE5=Smokey Robinson and The Miracles - The Tears Of A Clown
TTITLE6=Isley Brothers - This Old Heart Of Mine
TTITLE7=Jimmy Ruffin - What Becomes Of The Brokenhearted
TTITLE8=Jr Walker and The All Stars - What Does It Take
TTITLE9=The Spinners - It's A Shame
TTITLE10=Dianna Ross - Ain't No Mountain High Enough
TTITLE11=The Jackson 5 - I Want You Back
TTITLE12=Eddie Kendricks - Keep On Truckin'
TTITLE13=Undisputed Truth - Smilling Faces Sometimes
TTITLE14=Temptations - Papa Was A Rollin' Stone
TTITLE15=Edwin Starr - War
TTITLE16=Dennis Edwards - Don't Look Any Further
TTITLE17=Rockwell - Somebody's Watching Me
TTITLE18=Rick James - Super Freak
TTITLE19=Thelma Houston - Don't Leave Me This Way
EXTD=
EXTT0=
EXTT1=
EXTT2=
EXTT3=
EXTT4=
EXTT5=
EXTT6=
EXTT7=
EXTT8=
EXTT9=
EXTT10=
EXTT11=
EXTT12=
EXTT13=
EXTT14=
EXTT15=
EXTT16=
EXTT17=
EXTT18=
EXTT19=
PLAYORDER=
